<svg xmlns="http://www.w3.org/2000/svg" viewBox="0 0 100 100">
  <defs>
    <linearGradient id="bg-p" x1="0" y1="0" x2="1" y2="1">
      <stop offset="0%" stop-color="#10B981"/>
      <stop offset="100%" stop-color="#065F46"/>
    </linearGradient>
  </defs>
  <rect width="100" height="100" rx="22" fill="url(#bg-p)"/>
  <!-- Wrench body -->
  <path d="M62 18 C72 18 80 26 80 36 C80 43 76 49 70 52 L70 54 L54 70 L54 74 C54 78 50 82 46 82 C42 82 38 78 38 74 C38 70 42 66 46 66 L50 66 L66 50 L68 50 C74 48 78 43 78 36 C78 28 72 22 64 20 L68 26 L62 32 L56 26 Z" fill="white" opacity="0.95"/>
  <!-- Wrench circle handle -->
  <circle cx="46" cy="74" r="5" fill="#065F46"/>
</svg>
